<svg width="22" height="22" viewBox="0 0 22 22" fill="none" xmlns="http://www.w3.org/2000/svg">
<path d="M9.88921 0.371828C7.88272 0.585358 5.91689 1.40897 4.29678 2.7071C3.81888 3.09009 3.09017 3.8188 2.70717 4.2967C1.82594 5.39485 1.11417 6.7506 0.737954 8.04194C-0.427984 12.0617 0.832856 16.3831 3.97479 19.1353C5.54406 20.508 7.33364 21.3452 9.44521 21.6943C9.95022 21.7756 10.0722 21.7824 11.0416 21.7824C11.9771 21.7858 12.1465 21.7756 12.5905 21.7078C13.4718 21.5723 14.4208 21.3113 15.1495 21.0028C17.2611 20.1182 19.0506 18.593 20.2234 16.678C21.1046 15.2409 21.6333 13.6276 21.7723 11.9736C21.8265 11.3161 21.796 10.1467 21.7011 9.51631C21.2741 6.61163 19.6607 3.98149 17.2611 2.28004C15.7765 1.22934 13.9937 0.558244 12.1669 0.365051C11.5602 0.304042 10.4993 0.304041 9.88921 0.371828ZM11.9398 1.09715C15.3596 1.40558 18.3524 3.41547 19.942 6.46589C20.0471 6.66925 20.1454 6.87261 20.159 6.91329L20.1793 6.99124H15.4206C10.1909 6.99124 10.3942 6.98446 9.75703 7.19799C9.12661 7.40813 8.60465 7.74707 8.1098 8.26564C7.54039 8.85878 7.18112 9.56037 7.04555 10.3399C7.02182 10.4958 6.99132 10.628 6.98454 10.6348C6.97776 10.6416 6.82524 10.3942 6.6456 10.0823C6.46597 9.77051 5.98468 8.93673 5.57795 8.22836C5.16784 7.51998 4.53064 6.41505 4.15781 5.77446C3.78837 5.13048 3.47655 4.59158 3.46977 4.57463C3.46639 4.56107 3.66297 4.34076 3.91039 4.08656C5.47627 2.50034 7.32008 1.54116 9.49944 1.1785C10.1976 1.06326 11.2077 1.02936 11.9398 1.09715ZM4.18154 7.30306C7.23874 12.6074 7.61835 13.2615 7.79459 13.492C8.40807 14.3122 9.28591 14.8613 10.3197 15.0715C10.9297 15.1969 11.8211 15.1189 12.455 14.8884C12.6075 14.8308 12.7363 14.7901 12.7397 14.7969C12.7532 14.8071 9.28252 20.813 9.23507 20.8605C9.21134 20.8842 9.07916 20.8673 8.79784 20.8029C5.24241 19.9793 2.3784 17.2271 1.41244 13.7056C0.65322 10.9398 1.11417 8.02161 2.69361 5.59144C2.8258 5.39147 2.94442 5.22878 2.95798 5.22878C2.97154 5.22878 3.52062 6.16424 4.18154 7.30306ZM11.7195 7.8013C12.3838 7.94026 12.9667 8.25886 13.4345 8.74015C13.8615 9.18754 14.0852 9.56715 14.2649 10.1603C14.3496 10.4382 14.3598 10.5162 14.3598 11.0415C14.3632 11.5398 14.353 11.655 14.2852 11.899C14.0276 12.848 13.4006 13.614 12.5329 14.0411C11.994 14.3055 11.7296 14.3631 11.0416 14.3597C10.5162 14.3597 10.4383 14.3495 10.1604 14.2648C9.56723 14.0852 9.18762 13.8615 8.74022 13.4344C8.09963 12.8142 7.73697 11.9668 7.73697 11.0754C7.73697 10.889 7.75392 10.6382 7.77426 10.5162C7.8251 10.1772 8.0149 9.66544 8.19793 9.35362C8.42501 8.97401 8.97409 8.42494 9.3537 8.19785C9.65196 8.02161 10.1739 7.82502 10.4824 7.77418C10.8145 7.71995 11.3907 7.73351 11.7195 7.8013ZM20.6097 8.08261C20.7623 8.57746 20.8741 9.07569 20.9555 9.5841C21.047 10.14 21.0809 11.3398 21.0266 11.9261C20.8063 14.3122 19.8099 16.4408 18.1254 18.1253C16.4442 19.8064 14.3055 20.8096 11.9262 21.0266C11.5263 21.0638 10.096 21.0537 10.0553 21.0164C10.0451 21.0028 10.3468 20.4572 10.7298 19.7962C13.3192 15.3155 14.5157 13.2378 14.6546 12.9735C14.8343 12.6311 14.9936 12.1905 15.0715 11.7973C15.1393 11.4618 15.1427 10.7229 15.0749 10.3399C14.9122 9.40446 14.3496 8.46222 13.6073 7.87925L13.4243 7.7369H16.9662H20.5047L20.6097 8.08261Z" fill="white"/>
<path d="M10.1265 2.50372C9.71299 2.55795 9.14697 2.67658 9.00123 2.73758C8.7538 2.84265 8.71652 3.19515 8.93683 3.37139C9.03173 3.45274 9.17408 3.44596 9.63504 3.35106C10.1773 3.23582 10.5942 3.19515 11.2348 3.19515C12.3804 3.19515 13.3837 3.41546 14.4988 3.90691C14.8784 4.07638 14.9055 4.08316 15.0309 4.04588C15.2715 3.97131 15.3732 3.67305 15.2207 3.48324C15.0614 3.27649 13.8921 2.82232 13.0583 2.63929C12.4041 2.49694 11.933 2.44949 11.167 2.45288C10.7806 2.45627 10.3129 2.4766 10.1265 2.50372Z" fill="white"/>
<path d="M16.1459 4.29335C16.0375 4.35436 15.9765 4.47299 15.9731 4.62551C15.9731 4.77464 16.0104 4.8187 16.5086 5.25932C16.834 5.54741 16.8645 5.56775 17.0034 5.56775C17.1255 5.56775 17.1729 5.54741 17.2576 5.46268C17.3458 5.37795 17.3627 5.33388 17.3627 5.2017C17.3627 5.04918 17.3525 5.03562 17.095 4.78142C16.6679 4.37131 16.495 4.2459 16.3527 4.2459C16.2815 4.24929 16.19 4.26963 16.1459 4.29335Z" fill="white"/>
<path d="M3.10709 10.428C2.97491 10.5602 2.95457 10.6992 3.04608 10.8517C3.1376 11.0076 3.21894 11.0314 3.7104 11.0652C4.11034 11.089 4.19169 11.0856 4.27981 11.0415C4.49673 10.9297 4.54079 10.6145 4.36454 10.4484C4.26286 10.3535 4.0595 10.3196 3.55788 10.3162L3.22233 10.3128L3.10709 10.428Z" fill="white"/>
<path d="M3.76461 12.3092C3.29688 12.4075 3.21553 12.455 3.1613 12.6448C3.11046 12.8346 3.22909 13.0481 3.42567 13.1091C3.55447 13.1464 4.37469 12.9566 4.48654 12.8651C4.68651 12.6956 4.63567 12.3601 4.39842 12.2584C4.25607 12.2008 4.28657 12.1974 3.76461 12.3092Z" fill="white"/>
<path d="M4.351 14.2106C4.13747 14.319 3.9341 14.4444 3.90021 14.4885C3.82565 14.5868 3.82226 14.8139 3.89343 14.9156C3.95444 15.0037 4.11035 15.0918 4.20525 15.0918C4.3171 15.0918 5.07971 14.6986 5.15427 14.6003C5.2729 14.4512 5.25595 14.2648 5.1136 14.1224C4.94074 13.9496 4.82551 13.9631 4.351 14.2106Z" fill="white"/>
<path d="M5.73045 15.6273C5.57454 15.7256 5.10681 16.1527 5.0458 16.251C4.97462 16.3662 4.97801 16.512 5.04919 16.617C5.1407 16.7526 5.20171 16.7831 5.37118 16.7865C5.52031 16.7865 5.54064 16.7729 5.86941 16.4781C6.25241 16.1357 6.27952 16.0985 6.27952 15.9222C6.27952 15.8239 6.25241 15.7697 6.16429 15.6816C6.0321 15.5494 5.87958 15.529 5.73045 15.6273Z" fill="white"/>
<path d="M7.21163 16.834C7.08623 16.8882 7.05911 16.9221 6.78796 17.3424C6.60833 17.6203 6.57104 17.7017 6.57104 17.8135C6.58121 18.0881 6.9032 18.2507 7.13707 18.0982C7.18791 18.0643 7.33365 17.8745 7.46583 17.6746C7.65903 17.3797 7.70309 17.2848 7.70309 17.1763C7.70309 17.0102 7.62852 16.895 7.47939 16.834C7.34382 16.7764 7.34043 16.7764 7.21163 16.834Z" fill="white"/>
</svg>
