<svg width="22" height="22" viewBox="0 0 22 22" fill="none" xmlns="http://www.w3.org/2000/svg">
<path d="M9.88921 0.368501C8.22843 0.551527 6.5507 1.15822 5.15428 2.0869C4.49336 2.52752 4.00868 2.92069 3.46638 3.46637C1.1684 5.76097 0.032964 8.95713 0.365121 12.1702C0.744729 15.8138 2.96476 19.0235 6.23888 20.664C7.29297 21.1927 8.23521 21.4944 9.44521 21.6909C9.94683 21.7757 10.0722 21.7825 11.0246 21.7825C12.133 21.7858 12.4177 21.7587 13.2752 21.5791C15.563 21.0978 17.661 19.8573 19.1828 18.0914C20.6843 16.3493 21.5825 14.2276 21.7723 11.9737C21.8265 11.3195 21.7926 10.1163 21.7011 9.5062C21.2944 6.79811 19.9014 4.37472 17.7695 2.66648C16.1392 1.36497 14.2411 0.58881 12.1296 0.365112C11.55 0.304104 10.4823 0.304104 9.88921 0.368501ZM11.7059 1.08027C11.8211 1.1006 11.8042 1.11077 11.2314 1.39887C10.1976 1.91744 9.45199 2.44618 8.64532 3.22573C7.93355 3.91377 7.52683 4.40522 7.08621 5.11021C6.08297 6.71338 5.56439 8.56735 5.51016 10.7535C5.47627 12.194 5.6593 13.5294 6.06263 14.7902C6.56764 16.3595 7.26924 17.5051 8.46568 18.7049C9.37403 19.62 10.1773 20.2064 11.2416 20.7351C11.7466 20.986 11.8008 21.0232 11.7195 21.0436C11.5297 21.091 10.0417 21.03 9.58417 20.9588C7.41159 20.6097 5.51355 19.6505 3.99173 18.1253C1.56156 15.6986 0.561704 12.2618 1.29719 8.87239C1.78865 6.61169 3.15456 4.50013 5.04243 3.0766C6.59476 1.91066 8.25893 1.28024 10.3129 1.08366C10.5298 1.05993 11.5805 1.05993 11.7059 1.08027ZM13.9564 1.48699C16.7798 2.34111 19.1015 4.42895 20.2708 7.16077C20.7623 8.30637 21.0131 9.47231 21.047 10.7704C21.0741 11.8177 20.9894 12.5973 20.7521 13.5328C19.9014 16.8916 17.278 19.6302 13.9632 20.6301C13.7429 20.6979 13.5192 20.7521 13.4684 20.7521C13.2413 20.7521 12.3228 20.4301 11.6788 20.1251C11.3365 19.9624 10.7196 19.6133 10.7196 19.5828C10.7196 19.576 10.8009 19.5794 10.8992 19.5895C11.1467 19.6133 11.7195 19.5455 12.072 19.4438C12.4583 19.3353 13.1193 19.0066 13.4582 18.7558C15.4037 17.3153 16.6171 14.3564 16.6171 11.0585C16.6171 9.10626 16.2307 7.39464 15.4444 5.83892C14.3971 3.76125 12.8176 2.55803 11.1026 2.53769C10.9162 2.53769 10.7671 2.52413 10.7738 2.51057C10.8009 2.46651 11.3297 2.17503 11.7364 1.97845C12.3533 1.68357 13.2379 1.37175 13.4684 1.36836C13.5192 1.36497 13.7395 1.4192 13.9564 1.48699ZM11.7195 3.35452C13.4175 3.72735 14.8987 5.60845 15.5325 8.19113C16.2714 11.1941 15.7935 14.5563 14.3089 16.7899C13.9463 17.339 13.2616 18.0304 12.8074 18.3084C12.2109 18.6778 11.6923 18.8303 11.0416 18.8269C10.1705 18.8269 9.38081 18.4812 8.64193 17.7728C7.40142 16.5866 6.57781 14.6716 6.30666 12.3295C6.24904 11.8347 6.24904 10.3061 6.30666 9.78752C6.61848 7.01164 7.80137 4.70688 9.40114 3.76125C10.1536 3.31724 10.9264 3.18167 11.7195 3.35452Z" fill="white"/>
<path d="M17.7559 7.05238C17.5221 7.18456 17.3356 7.31675 17.3085 7.3642C17.1865 7.5879 17.3153 7.88277 17.5526 7.92683C17.6814 7.95056 17.7932 7.90311 18.2847 7.60823C18.6033 7.42182 18.6812 7.29641 18.6202 7.08627C18.5728 6.93375 18.4202 6.8219 18.2576 6.8219C18.1932 6.8219 18.0101 6.90325 17.7559 7.05238Z" fill="white"/>
<path d="M18.5558 8.85538C18.1491 8.96723 18.0677 9.01468 18.0067 9.15703C17.9152 9.38412 18.0881 9.66882 18.3185 9.66882C18.4304 9.66882 19.1659 9.48241 19.2675 9.42818C19.4031 9.357 19.4709 9.09602 19.393 8.94689C19.2811 8.72658 19.0947 8.70963 18.5558 8.85538Z" fill="white"/>
<path d="M18.4643 10.8348C18.2982 10.9093 18.2271 11.0144 18.2271 11.1839C18.2271 11.3127 18.244 11.3499 18.3389 11.4347L18.4474 11.533H18.9659C19.5184 11.533 19.5726 11.516 19.6641 11.3398C19.7556 11.1601 19.6641 10.9127 19.4811 10.8348C19.3286 10.7704 18.6067 10.7704 18.4643 10.8348Z" fill="white"/>
<path d="M18.0881 12.8007C17.9593 12.9295 17.939 13.0617 18.0237 13.2277C18.0915 13.3565 18.1254 13.3735 18.5863 13.4955C19.0913 13.6311 19.1693 13.6311 19.315 13.4853C19.4065 13.3938 19.4303 13.343 19.4303 13.2345C19.4303 13.0786 19.3421 12.9498 19.2032 12.8956C19.0066 12.8176 18.4507 12.6854 18.3287 12.6854C18.2304 12.6854 18.1762 12.7126 18.0881 12.8007Z" fill="white"/>
<path d="M17.3763 14.5292C17.2814 14.6241 17.261 14.6716 17.261 14.7868C17.261 14.9732 17.3729 15.0851 17.8271 15.3393C18.1965 15.5494 18.3016 15.5698 18.471 15.4647C18.6303 15.3698 18.6812 15.1766 18.5965 15.0037C18.5422 14.8987 18.4643 14.8377 18.1253 14.6445C17.644 14.3699 17.5491 14.3564 17.3763 14.5292Z" fill="white"/>
</svg>
