<svg version="1" xmlns="http://www.w3.org/2000/svg" width="85.333" height="85.333" viewBox="0 0 64.000000 64.000000"><path d="M14 32v26h6V6h-6v26zM27 33.4c0 23.6.1 24.5 2 25.1 1.1.3 2.9.3 4 0 1.8-.6 2-1.5 2-10.1V39h11.5l4.5 8.2C56.2 56.6 58.2 59 61 59c3.8 0 3.3-2.9-2.1-12.2-4-6.9-4.9-9.3-3.8-9.7.8-.2 2.9-1.9 4.6-3.7 3-2.9 3.3-3.8 3.3-8.8C63 12.3 58.1 9.1 39.3 9H27v24.4zm25.7-15.9c2.9 2.1 3.8 6.6 1.9 10.3-2 3.8-3.2 4.2-12.2 4.2H35V16h7.8c5.3 0 8.4.5 9.9 1.5zM.7 16.7c-.4.3-.7 9.8-.7 21v20.4l2.8-.3 2.7-.3.3-19.9c.2-15.3-.1-20.1-1-20.8-1.6-1-3.2-1-4.1-.1z"/></svg>