<svg width="23" height="23" viewBox="0 0 23 23" fill="none" xmlns="http://www.w3.org/2000/svg">
<path d="M10.2179 0.0293728C8.03929 0.254373 6.05357 1.0508 4.30357 2.40437C3.77857 2.80794 2.80714 3.77937 2.39643 4.31152C1.14286 5.92937 0.392857 7.68294 0.0857143 9.70437C0.0107143 10.1901 0 10.3865 0 11.3115C0 12.2365 0.0107143 12.4329 0.0857143 12.9187C0.228571 13.8579 0.496429 14.8401 0.825 15.6222C1.88929 18.1687 3.79286 20.2151 6.23572 21.4365C7.95357 22.2972 9.67143 22.6758 11.625 22.6222C13.3786 22.5722 14.8143 22.2115 16.375 21.4329C17.5286 20.8544 18.3679 20.2472 19.3036 19.3115C20.8107 17.8044 21.7857 16.0865 22.3 14.0365C22.55 13.0365 22.6071 12.5258 22.6071 11.3115C22.6071 10.3865 22.5964 10.1901 22.5214 9.70437C22.2179 7.69723 21.4536 5.91152 20.2107 4.31152C19.8107 3.79366 18.8286 2.81152 18.3393 2.42937C16.6857 1.15437 14.9357 0.39723 12.9286 0.0936581C12.3571 0.00794491 10.7786 -0.0313419 10.2179 0.0293728ZM12.8393 0.879373C14.3607 1.11152 15.8107 1.66152 17.0536 2.47937C17.5429 2.8008 18.025 3.16866 18.0107 3.20794C18.0036 3.22223 17.7643 3.45794 17.4786 3.72937C16.6143 4.5508 14.9536 6.12937 13.1 7.89009C12.1321 8.80794 11.325 9.56151 11.3036 9.56151C11.2821 9.56151 10.475 8.80794 9.50714 7.89009C7.65357 6.12937 5.99286 4.5508 5.12857 3.72937C4.84286 3.45794 4.60357 3.22223 4.59643 3.20794C4.58214 3.16509 5.075 2.79366 5.57857 2.46509C6.84286 1.63652 8.38214 1.06509 9.875 0.868658C10.5 0.786515 10.5464 0.782945 11.4821 0.793658C12.1393 0.804373 12.475 0.825801 12.8393 0.879373ZM5.275 4.95794C5.96786 5.61509 7.17857 6.76509 7.96429 7.51152C8.74643 8.25437 9.81786 9.27223 10.3393 9.76509C10.8607 10.2615 11.2929 10.6687 11.3036 10.6687C11.3143 10.6687 11.7464 10.2615 12.2679 9.76509C13.5357 8.56151 18.0393 4.28294 18.3714 3.97223L18.6357 3.72223L18.9286 4.03294C19.2321 4.35794 19.6643 4.8758 19.8893 5.19009L20.0179 5.3758L17.6357 7.69009C16.325 8.96509 14.7071 10.5365 14.0393 11.1865C13.375 11.8329 12.7536 12.4329 12.6571 12.5187L12.4821 12.6758V17.2258V21.7758L12.3857 21.8008C12.2571 21.8365 10.35 21.8365 10.225 21.8008L10.125 21.7758L10.1214 17.2294V12.6865L9.32857 11.9187C8.89286 11.4972 7.2 9.8508 5.56429 8.26151L2.59286 5.3758L2.70357 5.21152C3.01429 4.76152 3.92143 3.7258 3.98571 3.74723C4 3.75437 4.58214 4.29723 5.275 4.95794ZM5.21786 9.0258C6.86786 10.6222 8.46786 12.1829 8.77857 12.4865L9.33929 13.0401V17.3544C9.33929 19.7258 9.32857 21.6687 9.31072 21.6687C9.29643 21.6687 9.08929 21.6222 8.85 21.5615C7.63214 21.2651 6.56429 20.8008 5.52857 20.1222C4.9 19.7115 4.40357 19.3079 3.85714 18.7579C2.21429 17.1151 1.2 15.0794 0.85 12.7222C0.753572 12.0544 0.760714 10.4722 0.867857 9.77937C0.971429 9.13294 1.175 8.32223 1.39286 7.72223C1.60714 7.1258 2.10714 6.08652 2.175 6.10437C2.2 6.11152 3.57143 7.4258 5.21786 9.0258ZM20.7643 6.6758C21.2464 7.67223 21.5679 8.69366 21.7393 9.77937C21.8464 10.4722 21.8536 12.0544 21.7571 12.7222C21.5179 14.3294 20.975 15.7829 20.125 17.0758C19.7036 17.7151 19.3036 18.2079 18.75 18.7579C17.3857 20.1258 15.7643 21.0472 13.8821 21.5294C13.5821 21.6044 13.3214 21.6687 13.3036 21.6687C13.2786 21.6687 13.2679 20.1222 13.2679 17.3508V13.0329L16.1893 10.2008C17.7929 8.64009 19.3964 7.07937 19.75 6.73294C20.1036 6.38294 20.4143 6.09723 20.4393 6.09723C20.4643 6.09723 20.6107 6.35794 20.7643 6.6758Z" fill="#F9FAFC"/>
<path d="M10.8392 2.33651C10.0214 2.39008 9.27496 2.52937 8.56781 2.75437C7.6821 3.04008 6.77853 3.47937 6.67853 3.66866C6.58924 3.84366 6.61067 3.98294 6.74638 4.11866C6.92496 4.29723 7.03567 4.28294 7.54281 4.02937C8.4571 3.56866 9.31781 3.30437 10.3392 3.16508C10.7428 3.11151 11.8428 3.11151 12.2678 3.16508C13.2571 3.29366 14.3678 3.64366 15.1607 4.0758C15.4714 4.24723 15.625 4.24723 15.7892 4.08294C15.9321 3.94008 15.95 3.78651 15.8428 3.60794C15.7178 3.40437 14.6392 2.92223 13.7035 2.65437C12.8464 2.40437 11.6892 2.27937 10.8392 2.33651Z" fill="#F9FAFC"/>
<path d="M2.98221 8.32581C2.88578 8.35438 2.83935 8.40438 2.77863 8.52581C2.59292 8.90438 2.40363 9.86152 2.33935 10.7508C2.28935 11.3972 2.31435 11.5258 2.49649 11.6365C2.66792 11.7401 2.82506 11.7258 2.96435 11.5865C3.07506 11.4758 3.07863 11.4615 3.10363 11.0794C3.15363 10.2401 3.25006 9.65081 3.43221 9.01152C3.53221 8.66152 3.52506 8.54009 3.39649 8.42224C3.28221 8.31152 3.12863 8.27581 2.98221 8.32581Z" fill="#F9FAFC"/>
<path d="M3.2322 13.2222C2.75362 13.3615 2.66077 13.4365 2.66077 13.6794C2.66077 13.8651 2.73577 13.9794 2.90005 14.0472C3.01077 14.0972 3.05362 14.0901 3.43934 13.9865C3.98934 13.8401 4.07505 13.8008 4.13934 13.6722C4.2322 13.4937 4.21434 13.358 4.07505 13.2187C3.91791 13.0615 3.78577 13.0615 3.2322 13.2222Z" fill="#F9FAFC"/>
<path d="M4.07139 15.1508C3.66782 15.3865 3.51782 15.5329 3.51782 15.6937C3.51782 15.9187 3.74639 16.1222 3.96068 16.0865C4.02139 16.0758 4.25354 15.9615 4.47497 15.8294C4.78568 15.6472 4.89282 15.5651 4.93568 15.4722C5.01425 15.3115 4.97497 15.1258 4.83568 15.0115C4.65711 14.8615 4.52497 14.8865 4.07139 15.1508Z" fill="#F9FAFC"/>
<path d="M5.30001 16.833C5.11072 17.0222 4.93215 17.2222 4.91072 17.2794C4.80358 17.5294 5.00001 17.8115 5.27501 17.8115C5.41072 17.8115 5.44286 17.7865 5.75715 17.4794C5.94286 17.3008 6.11786 17.108 6.14643 17.0544C6.23215 16.8901 6.21072 16.7472 6.07501 16.6115C5.97501 16.5115 5.92501 16.4901 5.80358 16.4901C5.65715 16.4901 5.63215 16.508 5.30001 16.833Z" fill="#F9FAFC"/>
<path d="M7.21067 17.7365C7.13567 17.783 7.02495 17.9401 6.86067 18.2401C6.64638 18.6187 6.61781 18.6901 6.63566 18.8044C6.67852 19.0651 6.96067 19.2044 7.21424 19.0901C7.31067 19.0472 7.7571 18.308 7.79281 18.1294C7.82138 17.983 7.72138 17.7972 7.57853 17.7294C7.41781 17.6508 7.34638 17.6544 7.21067 17.7365Z" fill="#F9FAFC"/>
<path d="M19.2821 8.37937C19.0928 8.49723 19.0678 8.64723 19.175 9.01509C19.3571 9.63652 19.45 10.2365 19.5035 11.0794C19.5285 11.4615 19.5321 11.4758 19.6428 11.5865C19.8393 11.7829 20.15 11.7187 20.2571 11.4651C20.3785 11.1722 20.1821 9.59009 19.925 8.76866C19.7893 8.34723 19.5643 8.20795 19.2821 8.37937Z" fill="#F9FAFC"/>
<path d="M18.5322 13.2187C18.3929 13.358 18.3751 13.4937 18.4679 13.6722C18.5322 13.8008 18.6179 13.8401 19.1679 13.9865C19.5536 14.0901 19.5965 14.0972 19.7072 14.0472C19.8715 13.9794 19.9465 13.8651 19.9465 13.6794C19.9465 13.433 19.8572 13.3615 19.3572 13.2222C18.7965 13.0615 18.6893 13.0615 18.5322 13.2187Z" fill="#F9FAFC"/>
<path d="M17.7714 15.0115C17.6322 15.1258 17.5929 15.3115 17.6714 15.4722C17.7143 15.5651 17.8214 15.6472 18.1322 15.8294C18.3536 15.9615 18.5857 16.0758 18.6464 16.0865C18.8607 16.1222 19.0893 15.9187 19.0893 15.6972C19.0893 15.5294 18.9643 15.4044 18.5464 15.1579C18.075 14.8829 17.95 14.8615 17.7714 15.0115Z" fill="#F9FAFC"/>
<path d="M16.5321 16.6115C16.3964 16.7472 16.3749 16.8901 16.4606 17.0544C16.4892 17.108 16.6642 17.3008 16.8499 17.4794C17.1642 17.7865 17.1964 17.8115 17.3321 17.8115C17.6071 17.8115 17.8035 17.5294 17.6964 17.2794C17.6749 17.2222 17.4964 17.0222 17.3071 16.833C16.9749 16.508 16.9499 16.4901 16.8035 16.4901C16.6821 16.4901 16.6321 16.5115 16.5321 16.6115Z" fill="#F9FAFC"/>
<path d="M15.0215 17.7294C14.8858 17.7972 14.7858 17.9865 14.8143 18.1294C14.8429 18.2615 15.2608 18.9972 15.3536 19.0687C15.4786 19.1722 15.7108 19.1508 15.8465 19.0294C16.0358 18.8615 16.0144 18.7079 15.7322 18.2115C15.6072 17.9865 15.4715 17.7829 15.4286 17.7544C15.3036 17.6722 15.1536 17.6615 15.0215 17.7294Z" fill="#F9FAFC"/>
</svg>
