<svg width="35" height="35" viewBox="0 0 35 35" fill="none" xmlns="http://www.w3.org/2000/svg"><path d="M17.5 0C7.8508 0 0 7.8501 0 17.5 0 27.1499 7.8508 35 17.5 35S35 27.1499 35 17.5C35 7.8501 27.1492 0 17.5 0zm0 33.6538c-8.9068 0-16.1538-7.247-16.1538-16.1538S8.5932 1.3462 17.5 1.3462 33.6538 8.5932 33.6538 17.5 26.4068 33.6538 17.5 33.6538z" fill="#62677D"/><path d="M24.0335 10.9664a.6722.6722 0 0 0-.9517 0L17.5 16.5483l-5.5818-5.5819a.6724.6724 0 0 0-.9518 0 .6724.6724 0 0 0 0 .9518L16.5483 17.5l-5.5819 5.5818a.6722.6722 0 0 0 0 .9517.6713.6713 0 0 0 .4759.1973.6713.6713 0 0 0 .4759-.1973L17.5 18.4517l5.5818 5.5818a.6713.6713 0 0 0 .4759.1973.6709.6709 0 0 0 .4758-.1973.6722.6722 0 0 0 0-.9517L18.4517 17.5l5.5818-5.5818a.6724.6724 0 0 0 0-.9518z" fill="#62677D"/></svg>